<?xml version="1.0" encoding="UTF-8" standalone="no"?>
<!-- Created with Inkscape (http://www.inkscape.org/) -->

<svg
   xmlns:dc="http://purl.org/dc/elements/1.1/"
   xmlns:cc="http://creativecommons.org/ns#"
   xmlns:rdf="http://www.w3.org/1999/02/22-rdf-syntax-ns#"
   xmlns:svg="http://www.w3.org/2000/svg"
   xmlns="http://www.w3.org/2000/svg"
   xmlns:sodipodi="http://sodipodi.sourceforge.net/DTD/sodipodi-0.dtd"
   xmlns:inkscape="http://www.inkscape.org/namespaces/inkscape"
   width="297mm"
   height="210mm"
   viewBox="0 0 1052.3622 744.09448"
   id="svg2"
   version="1.1"
   inkscape:version="0.91 r13725"
   sodipodi:docname="gravure-nintendo-geek-chibi-link-believe-ina-u-4.svg">
  <title
     id="title3349">Chibi link believe ina you 2</title>
  <defs
     id="defs4" />
  <sodipodi:namedview
     id="base"
     pagecolor="#ffffff"
     bordercolor="#666666"
     borderopacity="1.0"
     inkscape:pageopacity="0.0"
     inkscape:pageshadow="2"
     inkscape:zoom="0.35"
     inkscape:cx="1074.8161"
     inkscape:cy="174.28571"
     inkscape:document-units="px"
     inkscape:current-layer="layer1"
     showgrid="false"
     inkscape:window-width="1533"
     inkscape:window-height="877"
     inkscape:window-x="-8"
     inkscape:window-y="-8"
     inkscape:window-maximized="1" />
  <metadata
     id="metadata7">
    <rdf:RDF>
      <cc:Work
         rdf:about="">
        <dc:format>image/svg+xml</dc:format>
        <dc:type
           rdf:resource="http://purl.org/dc/dcmitype/StillImage" />
        <dc:title>Chibi link believe ina you 2</dc:title>
      </cc:Work>
    </rdf:RDF>
  </metadata>
  <g
     inkscape:label="Calque 1"
     inkscape:groupmode="layer"
     id="layer1"
     transform="translate(0,-308.26772)">
    <path
       style="fill:#000000"
       d="m 563.33183,1029.1602 c -0.38191,-0.3827 -5.36037,-0.4376 -42.19341,-0.4654 -22.9682,-0.017 -57.73917,-0.1152 -77.26882,-0.2176 -19.52964,-0.1022 -48.77241,-0.098 -64.98391,0.011 -16.21149,0.1076 -31.12062,0.1228 -33.13137,0.033 l -3.65593,-0.1622 4.22666,-13.9361 c 2.32467,-7.6648 4.68274,-15.03252 5.24016,-16.37262 0.87526,-2.10419 1.80089,-6.87963 1.33349,-6.87963 -0.088,0 -4.72287,0.83479 -10.29958,1.8551 -5.57672,1.02031 -11.61995,2.05319 -13.42938,2.2953 -2.96014,0.39607 -36.88557,3.13041 -47.98235,3.86727 -2.44504,0.16238 -12.99415,0.29249 -23.44246,0.28914 -10.44832,-0.003 -24.1718,0.15003 -30.49659,0.3408 -9.81915,0.29614 -14.95782,0.27204 -35.16372,-0.16499 l -23.66405,-0.51187 -14.82391,-1.81847 c -14.23512,-1.74624 -15.32584,-1.83855 -27.46044,-2.32316 -12.1101,-0.48364 -12.84256,-0.48332 -17.58186,0.007 -10.441393,1.08083 -22.423407,0.91583 -30.378139,-0.41834 -16.515484,-2.7699 -27.488604,-10.3968 -31.576928,-21.94762 -1.505258,-4.25284 -1.90995,-6.90376 -1.919227,-12.57203 -0.0093,-5.74632 0.35648,-8.72554 1.757856,-14.31318 6.229768,-24.83967 27.953047,-56.58632 60.622618,-88.5946 3.77515,-3.69871 3.88342,-3.84709 14.54895,-19.9343 8.32865,-12.56239 11.05438,-16.92782 12.1188,-19.40889 0.7553,-1.76062 1.91858,-4.20606 2.58504,-5.43434 1.20398,-2.21896 3.17564,-8.37941 7.41198,-23.1588 1.12977,-3.94145 3.92664,-12.52732 6.21525,-19.07967 l 4.1611,-11.9134 2.57107,-17.1817 c 1.86733,-12.47882 2.683,-18.98816 2.98002,-23.78141 l 0.40896,-6.59969 -1.24446,-2.05478 c -0.88328,-1.45842 -2.4633,-3.17091 -5.44417,-5.90066 l -4.19972,-3.84591 -14.33597,-5.4865 c -7.8848,-3.01761 -15.24626,-5.743 -16.35881,-6.05649 -1.11255,-0.31345 -2.78258,-0.95864 -3.71116,-1.43371 -1.56175,-0.79913 -1.93014,-0.86388 -4.91355,-0.86388 -10.260892,0 -32.214404,-5.42321 -47.958634,-11.84729 -15.588251,-6.36042 -25.208031,-12.95184 -29.35559,-20.11432 -9.193033,-15.87551 11.995175,-31.12399 62.450834,-44.94386 4.360995,-1.19448 10.08632,-2.70491 12.72295,-3.35649 5.6098,-1.38636 5.13675,-1.1953 24.59367,-9.93268 l 15.07206,-6.76828 8.62462,-5.49454 c 4.74355,-3.022 17.07943,-10.44516 27.41308,-16.49591 17.72857,-10.38077 29.14885,-17.1464 33.88199,-20.07245 1.9817,-1.2251 2.1194,-1.39064 2.73984,-3.29374 0.3593,-1.10209 3.07516,-6.58429 6.03522,-12.18267 4.58361,-8.669 6.98733,-12.68217 16.20476,-27.05489 9.62114,-15.00224 11.13731,-17.20107 13.65532,-19.80374 2.54676,-2.63238 2.87754,-3.11604 3.27869,-4.79421 l 0.44618,-1.86646 -3.90534,-3.14632 c -10.13491,-8.1652 -15.20531,-12.06936 -18.27213,-14.06936 -3.29091,-2.14615 -3.47335,-2.3323 -13.78968,-14.07078 -8.39085,-9.54755 -19.13692,-20.90623 -26.41831,-27.92434 -0.28726,-0.27687 -0.44708,-0.56594 -0.35515,-0.64237 0.0919,-0.0765 3.02559,0.91051 6.51926,2.1932 l 6.35213,2.33217 29.64782,1.79919 29.64783,1.79918 19.65031,-0.1628 19.6503,-0.16279 5.86062,-4.635 c 10.49328,-8.29882 29.47296,-20.95326 58.42788,-38.95597 l 22.57469,-14.0358 3.50058,-0.91377 c 1.92532,-0.50257 4.25501,-1.27123 5.17706,-1.70812 7.84813,-3.7186 30.31746,-13.91009 30.66775,-13.91009 0.24395,0 0.53039,-0.1169 0.6366,-0.25978 0.38043,-0.51181 15.43221,-6.32513 26.35337,-10.17823 14.69233,-5.18361 25.56771,-8.20473 32.61751,-9.06095 1.51687,-0.18423 5.93819,-0.96673 9.82516,-1.73887 l 7.06721,-1.4039 8.79093,-0.002 c 6.7718,-0.002 11.63005,-0.19958 21.15199,-0.86181 6.79859,-0.47282 13.33873,-0.85969 14.53364,-0.85969 1.19491,0 9.20521,0.5191 17.80066,1.15355 l 15.62809,1.15354 3.01215,1.42404 3.01219,1.42404 13.53865,0.55557 13.53868,0.55557 14.3068,2.46043 c 7.86875,1.35324 20.98149,3.6844 29.13944,5.18033 l 14.83267,2.7199 20.97101,6.15101 c 16.41615,4.81503 25.21234,7.596 40.49846,12.80384 l 19.52747,6.65282 19.01005,9.02484 c 12.89839,6.12338 20.43504,9.88651 23.44247,11.70506 3.66592,2.21674 25.05731,17.71507 32.24147,23.35936 2.25371,1.77064 16.72113,14.53059 19.71087,17.38457 8.32156,7.94363 23.93672,31.76189 39.55755,60.33822 7.10724,13.00178 7.28202,13.36864 13.05455,27.40188 l 5.85087,14.22367 4.11722,19.77893 4.11725,19.77893 1.06518,12.18268 c 1.43548,16.41815 2.44626,30.82512 2.57002,36.63181 0.0561,2.63413 -0.16847,9.30395 -0.49911,14.82191 -0.33064,5.51792 -0.53859,10.08467 -0.46206,10.14831 0.0765,0.0637 6.30785,-1.66269 13.84736,-3.83625 44.82566,-12.92281 44.07313,-12.71659 47.6008,-13.04438 8.20783,-0.7627 17.27085,-0.28123 21.22315,1.12746 5.906,2.10499 6.9921,6.83734 3.0627,13.34413 -3.3936,5.61964 -14.09075,16.17429 -21.81439,21.52388 -1.33633,0.92558 -3.69891,3.04009 -5.25018,4.69893 -1.55131,1.65886 -8.80613,8.82078 -16.1218,15.91539 -14.54126,14.10181 -27.29569,27.86895 -31.81189,34.33781 -2.24933,3.22184 -2.51844,3.80524 -4.57221,9.91139 -3.40312,10.11802 -2.67502,8.95582 -9.7682,15.59217 l -6.20119,5.80177 -16.54197,8.3999 c -16.49229,8.37466 -16.54256,8.4031 -16.72765,9.45949 -0.66649,3.80401 -0.89391,9.12058 -1.06312,24.85163 -0.22404,20.8263 -0.7333,34.53046 -1.37634,37.03625 -0.28679,1.11742 -0.33099,1.8129 -0.11901,1.87166 0.18613,0.0516 -1.07601,4.45806 -2.81595,9.83122 l -3.15326,9.73771 -14.02804,19.4404 -14.02804,19.4404 -8.59063,8.65142 c -4.72487,4.7583 -13.41237,13.15479 -19.30557,18.65893 l -10.71494,10.0075 -0.20597,-12.58736 -0.20599,-12.58737 -2.44295,-16.72622 c -1.34359,-9.1994 -2.5174,-16.78815 -2.60848,-16.86389 -0.0911,-0.0757 -0.88813,-0.15951 -1.77126,-0.18621 -1.58974,-0.048 -1.74308,0.0353 -15.48499,8.40769 l -13.87939,8.45621 -1.07877,3.29648 c -0.5933,1.81308 -2.56229,9.03224 -4.3755,16.04258 l -3.2967,12.74609 -2.91631,4.41391 -2.91628,4.41392 0.70976,0.7557 c 0.39038,0.41564 7.72963,6.68937 16.30947,13.94165 l 15.59969,13.18595 2.77545,4.15644 c 1.52648,2.28605 3.4861,4.79267 4.35471,5.5703 1.89626,1.6976 3.43787,4.05084 4.02277,6.14069 0.549,1.96151 0.28555,5.17008 -0.59179,7.20799 l -0.67872,1.57658 -1.62474,-0.071 c -2.06328,-0.0902 -3.47097,0.50707 -3.96343,1.6817 -0.54131,1.29117 -0.4735,3.81559 0.135,5.02655 0.73147,1.45567 0.64674,3.42192 -0.21098,4.89517 -0.71958,1.23595 -3.70667,4.00309 -5.58373,5.1725 l -0.96835,0.60326 1.77998,3.09864 c 2.95985,5.15269 15.84246,28.98819 15.84246,29.31199 0,0.4081 -34.59391,0.401 -74.89745,-0.015 -24.84447,-0.2566 -31.3936,-0.25 -31.80247,0.032 -0.28321,0.1954 -0.51491,0.2291 -0.51491,0.074 0,-0.1815 -23.15791,-0.3313 -65.5872,-0.4241 -55.3879,-0.1212 -65.70025,-0.082 -66.31424,0.2519 -0.62497,0.3401 -0.78773,0.3346 -1.15998,-0.038 z m 135.54836,-2.8198 c 0.43348,-0.5211 3.34782,-3.7123 6.47636,-7.0914 3.12854,-3.3792 6.85227,-7.5754 8.27498,-9.3249 2.66366,-3.2756 6.58617,-6.5384 18.92732,-15.74447 3.22592,-2.40645 6.16526,-5.08787 12.41179,-11.32273 4.50167,-4.49325 8.40581,-8.30703 8.67588,-8.4751 1.01141,-0.62928 22.34867,-5.82235 26.4329,-6.4332 2.3227,-0.34739 4.22496,-0.71471 4.22726,-0.81624 0.003,-0.10148 -1.27758,-2.99954 -2.84411,-6.43998 l -2.8483,-6.25543 -7.0355,-5.14613 c -3.86952,-2.8304 -8.05815,-5.74976 -9.30804,-6.48752 -1.2499,-0.73775 -10.11649,-6.1325 -19.70357,-11.98832 l -17.43103,-10.64697 -17.80962,-8.37968 -17.80959,-8.3797 -5.95608,3.41865 -5.95604,3.41869 -16.20288,5.09096 c -8.91159,2.80001 -17.3276,5.48208 -18.70226,5.96016 l -2.49938,0.86924 0,2.72902 0,2.72897 -6.61437,8.62195 c -5.28779,6.89273 -7.36073,9.90291 -10.33572,15.00888 -2.04669,3.5128 -7.16342,11.83451 -11.37045,18.49271 -5.84535,9.25097 -8.90859,13.72812 -12.98971,18.98539 -10.61024,13.66805 -21.88418,27.49635 -27.52626,33.76295 -1.38883,1.5426 -2.52513,2.8648 -2.52513,2.9382 0,0.073 19.30446,0.1335 42.89875,0.1335 40.2854,0 44.09194,0.044 62.48453,0.7157 10.77219,0.3937 20.2063,0.7581 20.96474,0.8099 0.75843,0.052 1.72243,0.1167 2.14218,0.1443 0.51454,0.034 1.02007,-0.2587 1.55135,-0.8974 z m 89.528,-10.6093 -5.91091,-10.4898 -10.38771,-10.86148 c -5.71321,-5.97384 -10.48358,-10.91361 -10.60078,-10.97725 -0.46473,-0.25228 -23.71155,18.28223 -37.64755,30.01603 l -14.76296,12.4301 7.52338,-0.1579 c 4.13784,-0.087 7.82406,-0.2089 8.19163,-0.2711 0.36752,-0.062 13.24365,0.076 28.6136,0.307 28.24173,0.4246 40.62159,0.5842 40.79648,0.5261 0.0527,-0.017 -2.5642,-4.7522 -5.81518,-10.5217 z m -212.6784,-9.0822 c 6.00173,-10.32656 11.73792,-20.04647 12.74708,-21.59974 1.37191,-2.11156 1.7242,-2.881 1.39625,-3.04954 -0.24125,-0.12398 -6.19744,-1.64851 -13.23593,-3.38785 l -12.79732,-3.16242 -23.53858,-1.20001 -23.53854,-1.20004 -2.6856,1.46605 c -2.3919,1.30573 -2.77142,1.63816 -3.46994,3.03948 l -0.78429,1.57343 3.51472,8.95893 c 1.93311,4.92743 5.967,14.58231 8.96419,21.45531 3.17928,7.2905 5.55069,13.17 5.69245,14.1135 l 0.24301,1.617 10.5617,0.083 c 5.80893,0.046 14.03951,0.08 18.29011,0.076 l 7.72843,-0.011 10.91226,-18.7757 z m -188.00436,16.8686 c 12.71044,-0.2436 18.62308,-0.4538 18.53372,-0.6586 -0.15072,-0.3457 -2.83498,-13.7593 -5.1081,-25.52611 -0.8528,-4.41443 -2.41848,-13.70193 -3.47925,-20.63888 l -1.92873,-12.61266 -4.34937,-8.74287 c -2.39213,-4.80857 -4.44756,-8.8396 -4.56755,-8.95785 -0.12004,-0.11823 -3.67238,5.75094 -7.89416,13.04264 l -7.67588,13.25762 -3.27061,9.17283 c -1.79883,5.04507 -6.36508,16.56446 -10.14725,25.59868 -3.78217,9.0342 -6.87667,16.5038 -6.87667,16.5993 0,0.096 4.07226,0.095 9.04948,0 4.97721,-0.096 17.44868,-0.3359 27.71437,-0.5328 z m 132.15983,-0.2599 c 0,-0.167 -2.26038,-6.5199 -5.02307,-14.1175 -3.08748,-8.4908 -6.21243,-17.84565 -8.10951,-24.27664 -3.07506,-10.4243 -3.09264,-10.50493 -4.7804,-21.92882 l -1.69399,-11.46604 -2.21822,-4.58642 -2.21821,-4.58642 -0.74725,-10.46277 c -1.05526,-14.77461 -0.93223,-13.98683 -2.23273,-14.29483 -0.5902,-0.13978 -10.30359,-2.78566 -21.58527,-5.87971 -16.155,-4.43057 -22.52597,-6.32551 -29.99257,-8.92073 -5.21423,-1.81235 -9.73049,-3.29543 -10.03618,-3.29574 -0.30564,0 -3.40656,0.85662 -6.89091,1.90431 l -6.33519,1.90491 -18.18904,9.47563 -18.18909,9.47559 0,4.79766 0,4.79765 3.75211,2.16207 c 3.0016,1.72959 3.85625,2.37817 4.27273,3.24245 0.28635,0.59421 3.89207,7.40105 8.01271,15.1263 4.12064,7.72525 7.69696,14.69087 7.94741,15.47916 0.67562,2.12653 5.81473,36.80449 6.91367,46.65249 l 0.95166,8.5279 3.81133,0.041 c 2.09627,0.022 9.86159,0.1266 17.25631,0.2311 23.79918,0.3362 85.3237,0.3344 85.3237,0 z M 94.645746,990.85676 c 4.31083,-0.43854 9.569494,-1.36566 14.770864,-2.60411 l 4.77336,-1.13658 12.63613,-0.38496 12.63612,-0.38497 4.30928,0.82512 c 3.83593,0.73449 7.30083,1.01721 31.54391,2.57376 l 27.23464,1.74859 27.407,-0.18434 c 25.33489,-0.17039 28.07165,-0.23683 36.19794,-0.87868 4.835,-0.38189 26.32107,-2.11564 47.74679,-3.85281 l 38.95588,-3.15844 4.82639,-1.19124 c 2.65451,-0.6552 4.95656,-1.28342 5.1157,-1.39608 0.1591,-0.11262 3.11695,-7.47494 6.57299,-16.3607 l 6.28369,-16.15589 -2.01175,-6.44965 c -2.64279,-8.47277 -2.70106,-8.70236 -2.26533,-8.92626 0.19864,-0.10202 0.28351,-0.52331 0.18861,-0.93609 -0.0948,-0.41278 -0.0564,-1.23268 0.0855,-1.82207 1.04646,-4.34566 2.1342,-8.34524 2.42385,-8.91253 0.18947,-0.37107 3.95846,-4.95032 8.37551,-10.17611 4.41708,-5.22577 8.50137,-10.0819 9.07624,-10.79136 l 1.04521,-1.28993 -0.45396,-3.43982 c -0.24965,-1.8919 -1.00792,-7.69658 -1.68499,-12.8993 -0.67711,-5.20272 -1.31246,-9.68188 -1.412,-9.95365 -0.0995,-0.2718 -0.59833,-0.76616 -1.10855,-1.09862 -0.51022,-0.33245 -5.23032,-3.76915 -10.48912,-7.6371 l -9.56147,-7.03265 -12.46782,-12.56948 c -6.8573,-6.91323 -12.59957,-12.50181 -12.7606,-12.41904 -0.16102,0.0827 -0.29566,1.01353 -0.2992,2.06842 -0.003,1.05489 -0.31234,5.40078 -0.68623,9.65755 -0.45636,5.19568 -0.68087,10.61432 -0.68306,16.48566 l -0.003,8.7461 -6.01438,12.49822 -6.01439,12.49823 -6.83969,7.99412 c -12.61763,14.74726 -28.13665,33.85617 -34.25003,42.17284 l -6.06118,8.24564 -5.96459,4.10389 c -3.28052,2.25713 -6.0763,3.99853 -6.21284,3.8698 -0.13656,-0.12876 -2.20808,-10.29556 -4.60339,-22.5929 -4.2829,-21.98813 -4.37743,-22.57356 -5.70182,-35.31369 l -1.34672,-12.95485 1.00222,-10.3455 1.00223,-10.34547 6.20044,-10.94491 c 3.41009,-6.01971 6.20029,-11.09888 6.20029,-11.28706 0,-0.18823 0.74963,-1.74044 1.66584,-3.44939 0.91622,-1.70896 1.84475,-3.49417 2.06342,-3.96714 0.46146,-0.99816 4.89698,-14.56696 4.7892,-14.65075 -0.0398,-0.0309 -5.42441,-1.79248 -11.96588,-3.91468 -9.55307,-3.09921 -13.50609,-4.55451 -20.08747,-7.39517 l -8.19385,-3.53664 -4.83803,-5.5318 c -2.66091,-3.04248 -4.97826,-5.88658 -5.14965,-6.32023 -0.17139,-0.43364 -0.62515,-2.61649 -1.00837,-4.85074 l -0.69674,-4.06224 -4.43714,-5.11059 c -2.57943,-2.97092 -9.3107,-11.71131 -16.07758,-20.87638 -12.66124,-17.14839 -17.61265,-23.19218 -30.8484,-37.65413 l -8.42673,-9.20741 -2.16684,3.22185 c -1.19177,1.77204 -2.17011,3.38753 -2.1741,3.59002 -0.004,0.20248 -1.64763,10.13495 -3.65254,22.07214 l -3.64527,21.704 -3.58279,11.92426 c -1.97054,6.55835 -5.36446,17.21976 -7.54206,23.69206 l -3.95925,11.76778 -6.85068,10.2761 c -3.76786,5.65187 -10.16597,15.27633 -14.21803,21.38771 l -7.36737,11.1116 -11.42126,12.14934 -11.421247,12.14936 -13.633632,18.16015 c -7.498502,9.98809 -14.183488,19.07045 -14.855519,20.18304 -2.690802,4.45472 -7.940641,15.7041 -12.877306,27.59356 -2.401024,5.78261 -2.537023,6.24474 -2.53065,8.59953 0.02138,7.88359 3.049927,16.8986 7.631505,22.71599 2.439278,3.09724 4.488843,4.96838 7.613768,6.95097 8.066806,5.11793 18.734054,6.98153 32.150047,5.61673 z M 596.80806,972.02797 c 3.03352,-4.1381 7.08076,-10.46217 13.34087,-20.84602 4.94246,-8.19823 10.68232,-17.55022 12.75522,-20.78221 2.0729,-3.232 3.74055,-5.9046 3.70584,-5.93911 -0.0347,-0.0345 -5.09682,0.70932 -11.24919,1.65295 -10.50122,1.61067 -12.01978,1.76955 -24.8034,2.59523 -13.02526,0.84126 -14.17191,0.87127 -26.37278,0.69022 -16.48585,-0.24466 -21.74924,-0.50103 -21.34865,-1.03999 0.1033,-0.13889 0.12983,-0.25251 0.0591,-0.25251 -0.0707,0 -9.18379,-1.99714 -20.25128,-4.43805 -11.06751,-2.44096 -20.14899,-4.40809 -20.18111,-4.37144 -0.032,0.0366 -0.47785,0.67105 -0.99048,1.40981 -1.09238,1.57417 -1.12113,0.69562 0.52787,16.14253 l 1.04043,9.74615 3.79292,12.46588 c 2.0861,6.85621 3.84146,12.50622 3.90076,12.55556 0.0593,0.0493 1.19581,-0.69084 2.52551,-1.64481 l 2.41765,-1.73447 2.75269,0 c 1.51398,0 11.57489,0.58288 22.35756,1.29529 l 19.60484,1.2953 15.68577,3.5598 c 8.62716,1.95788 15.8409,3.56433 16.03051,3.56989 0.1896,0.005 2.30429,-2.66292 4.69931,-5.93 z M 277.74803,945.52058 c 1.65863,-1.93131 3.71333,-4.27439 4.56599,-5.20682 1.72414,-1.88547 2.96227,-3.48169 23.51789,-30.32012 l 14.42159,-18.82955 5.88006,-9.96414 5.88006,-9.96416 1.61695,-12.62532 1.61694,-12.62533 -1.08839,-7.02505 c -0.59861,-3.86376 -3.13633,-21.14978 -5.63937,-38.41335 -2.50304,-17.26356 -4.56661,-31.40791 -4.58571,-31.43188 -0.0191,-0.0241 -2.9807,0.36302 -6.58132,0.85996 l -6.54658,0.90353 -3.46607,12.61264 -3.46609,12.61266 -4.90125,11.46604 c -3.9347,9.20486 -5.57921,13.55763 -8.33905,22.07215 l -3.43779,10.6061 -10.8652,18.3829 c -8.64784,14.6314 -10.86519,18.61218 -10.86519,19.5063 0,2.09382 5.15317,58.76198 5.84735,64.30194 0.26655,2.1273 0.49461,2.70017 1.79681,4.51367 0.82033,1.14245 1.52102,2.07765 1.55709,2.07822 0.0361,0 1.42265,-1.57908 3.08128,-3.51039 z m 317.25985,-23.184 17.03354,-0.89398 15.37223,-3.8081 15.37219,-3.80814 18.96082,-6.69488 18.96082,-6.69486 18.27134,-8.87647 18.27134,-8.87649 11.03174,-7.29149 c 6.06747,-4.01034 12.29017,-8.14066 13.82824,-9.17851 2.25771,-1.52346 14.98629,-11.14194 33.22363,-25.10577 2.39582,-1.8344 14.92879,-13.74774 15.10922,-14.3622 0.0591,-0.20132 -0.52262,-2.03303 -1.29278,-4.07046 -0.77015,-2.0374 -1.40027,-3.99685 -1.40027,-4.35431 0,-0.35748 0.76822,-2.79376 1.70716,-5.41395 1.38731,-3.87134 2.63707,-6.42898 6.67004,-13.65016 2.7296,-4.8874 6.05467,-10.75659 7.38903,-13.04263 1.33439,-2.28604 5.79574,-10.5416 9.91409,-18.34567 4.1184,-7.80408 8.47888,-16.01323 9.68996,-18.24252 1.57894,-2.90652 2.74637,-5.69162 4.12632,-9.844 1.05842,-3.1849 1.87391,-5.82029 1.81223,-5.85643 -0.0617,-0.0361 -9.70232,-7.25758 -21.42362,-16.0476 -12.8111,-9.60728 -24.43854,-18.05999 -29.1513,-21.19194 -7.66985,-5.09715 -8.23085,-5.5455 -25.88645,-20.68922 -32.00035,-27.44763 -34.61543,-29.73215 -39.9499,-34.89979 -6.12765,-5.93603 -5.32189,-5.64803 -11.87282,-4.24358 -10.20691,2.18829 -31.81901,9.74189 -61.87809,21.62691 l -6.99192,2.76452 -4.30393,-0.49306 c -2.36717,-0.2712 -4.26267,-0.58088 -4.2122,-0.68813 0.26552,-0.56454 12.08687,-7.96152 24.51907,-15.34232 l 14.08506,-8.36211 16.34282,-6.6855 c 8.98856,-3.67706 16.30206,-6.77908 16.25224,-6.89339 -0.17885,-0.41043 -30.43297,-32.32046 -30.65664,-32.33454 -0.1258,-0.007 -0.83287,0.85631 -1.57123,1.9205 -0.73841,1.06419 -6.14517,7.80407 -12.01506,14.97752 -9.69036,11.84234 -12.17899,14.63739 -27.04235,30.37176 -16.0345,16.97422 -16.69613,17.62687 -32.3022,31.865 -20.80781,18.98392 -20.49702,18.76158 -48.8067,34.91991 -37.10774,21.18003 -32.12017,18.61175 -48.51743,24.98357 l -14.31549,5.56287 10.05052,6.52055 10.05051,6.52051 -0.48677,1.93096 c -0.26774,1.06204 -0.60496,2.02923 -0.74941,2.14934 -0.14441,0.12008 -4.59931,-1.18349 -9.89975,-2.89681 l -9.63717,-3.11518 -13.44495,-1.22676 -13.44494,-1.22675 -4.70811,2.33142 -4.70808,2.33142 -28.5544,5.48539 c -24.09452,4.62862 -29.57823,5.7759 -35.10962,7.34544 l -6.55523,1.86008 -14.13444,1.24708 c -9.96825,0.87952 -15.96348,1.55502 -20.33979,2.29177 -3.41294,0.57456 -6.2531,1.08202 -6.31145,1.12766 -0.0584,0.0456 0.43492,3.93457 1.09617,8.64211 0.66124,4.70749 1.45646,11.8484 1.76714,15.86869 0.49285,6.37758 0.82551,8.53404 2.60888,16.91242 1.12421,5.28155 2.11526,9.8608 2.20235,10.17611 0.0871,0.31532 0.71036,0.8204 1.38504,1.12239 1.69141,0.7571 1.77292,0.86912 2.87556,3.953 0.93572,2.61699 2.34837,4.59654 4.25367,5.96068 0.3303,0.23649 5.42992,5.6542 11.33246,12.03935 l 10.73193,11.60938 12.72402,9.10117 c 6.99819,5.00565 12.8573,9.10118 13.02022,9.10118 0.16293,0 0.59175,0.27211 0.95293,0.60472 0.36122,0.3326 5.38833,3.32449 11.17138,6.64865 5.78304,3.32415 11.55028,6.80309 12.81607,7.73098 l 2.30143,1.68708 4.38991,-0.73944 c 2.41447,-0.40673 4.77288,-0.73948 5.24094,-0.73948 1.25473,0 4.52112,1.64642 4.73331,2.3858 0.0985,0.34321 0.46817,1.95683 0.82148,3.58575 0.35333,1.62896 0.77702,3.05934 0.94157,3.17867 0.16458,0.11931 2.93647,1.16045 6.15982,2.31365 3.22334,1.1532 12.60143,4.53365 20.84022,7.51215 l 14.97959,5.41545 4.84308,0.55616 c 2.66369,0.30592 6.23929,0.88573 7.94576,1.28853 1.70647,0.40276 12.33315,2.69423 23.61484,5.09212 l 20.51216,4.3598 18.09895,0.15668 c 9.95443,0.0861 19.02977,0.11776 20.16742,0.0702 1.13766,-0.0476 9.73356,-0.48874 19.10203,-0.98041 z m -46.81234,-18.50113 -4.95731,-0.11047 -16.76143,-5.63485 -16.76144,-5.63485 -11.00499,-6.1814 -11.00497,-6.18143 -11.25281,-8.88934 c -7.92141,-6.25766 -13.49999,-10.96794 -18.8434,-15.91043 l -7.59056,-7.02109 -3.28946,-5.15844 c -3.4851,-5.46526 -8.05628,-13.39002 -10.33272,-17.91321 -5.03489,-10.00401 -7.17839,-16.39071 -7.17839,-21.38838 l 0,-2.40487 1.8099,0.003 c 0.99544,0.003 2.36872,0.08 3.05172,0.17397 l 1.24183,0.17079 0.62578,2.8359 c 0.60071,2.72229 0.66142,2.83598 1.5161,2.83852 4.85521,0.0146 57.92928,2.56258 74.14805,3.55973 11.4713,0.70527 24.50255,1.48066 28.95834,1.72309 81.89093,4.45553 79.91659,4.32946 108.59379,6.93386 23.61074,2.14424 27.76557,2.45224 32.57677,2.41486 5.3497,-0.0415 5.54082,-0.0638 6.39658,-0.74555 1.07511,-0.85645 1.17091,-0.85663 4.74738,-0.009 l 2.86877,0.68066 2.21648,-1.72403 2.21652,-1.72404 1.46481,1.09054 c 0.80567,0.59982 1.51328,1.18699 1.57247,1.30489 0.0592,0.11787 -2.55667,4.38252 -5.81304,9.47698 -4.04541,6.32891 -7.08221,10.6699 -9.58803,13.70568 -2.01706,2.44364 -4.4046,5.52835 -5.30563,6.85491 -2.37834,3.50151 -5.01158,6.29493 -9.71666,10.30773 -8.17349,6.97084 -19.52857,14.37406 -33.38563,21.76648 -6.75267,3.6024 -9.04541,4.51439 -29.20665,11.61766 -16.90682,5.95664 -19.77504,6.87883 -24.64907,7.92524 l -5.51588,1.18422 -13.44495,0.0861 c -7.39472,0.0473 -15.67574,0.0363 -18.40227,-0.0244 z m 28.74454,-6.81046 c 26.19914,-2.65373 45.80255,-9.42862 61.36374,-21.20715 1.9734,-1.49368 2.90441,-2.39179 2.77351,-2.67542 -0.10835,-0.23483 -1.52042,-1.81041 -3.13787,-3.50131 l -2.94086,-3.07433 -11.59606,-5.69043 c -11.0592,-5.42696 -12.21963,-5.92029 -25.06472,-10.65542 l -13.46867,-4.96498 -17.65125,-1.91523 -17.65128,-1.91522 -11.30705,0.55343 c -6.21891,0.30439 -11.77251,0.53891 -12.34133,0.52116 -0.56882,-0.0178 -2.75165,-0.13063 -4.85076,-0.25084 -14.62376,-0.83743 -31.19003,7.13044 -43.88427,21.10693 l -1.72209,1.89605 9.99722,7.42011 9.99724,7.42011 19.36824,7.80135 19.36824,7.80138 3.46231,0.01 c 2.69856,0.007 4.14348,0.17597 6.5501,0.76277 1.6983,0.41406 4.32885,0.8558 5.84572,0.98161 4.39684,0.36471 21.81304,0.0898 26.88989,-0.42444 z m 78.08614,-33.55831 c 3.28957,-3.15316 11.08732,-10.00605 17.3283,-15.22866 l 11.34719,-9.49564 2.3852,-4.66639 c 1.31188,-2.56653 2.34466,-4.69119 2.29505,-4.72147 -0.0496,-0.0302 -2.00677,-0.18995 -4.3493,-0.3549 l -4.25918,-0.29986 -10.91558,6.10383 -10.9156,6.10381 -55.66977,-2.95452 c -30.61839,-1.62496 -64.58995,-3.29778 -75.49243,-3.71737 l -19.82267,-0.76287 -23.09774,-2.98745 c -12.70374,-1.64308 -23.46191,-3.08548 -23.907,-3.20533 -0.59362,-0.15981 -2.12606,-2.08929 -5.75089,-7.24084 l -4.94161,-7.02295 -4.93611,-0.18658 c -2.71489,-0.10266 -4.98332,-0.14938 -5.04104,-0.10383 -0.20436,0.16112 1.72699,6.85747 2.84333,9.85828 4.00236,10.75873 10.78251,21.53034 18.60654,29.56007 2.7398,2.81182 8.03739,7.45293 8.50717,7.45293 0.14651,0 0.36419,-0.2563 0.48374,-0.56952 0.50666,-1.32736 4.40784,-5.79121 6.92991,-7.92946 8.51075,-7.21544 20.55969,-11.64174 35.3309,-12.97922 6.25413,-0.56628 33.20852,-0.24592 46.85648,0.55691 25.45701,1.49749 45.26176,4.85543 57.39958,9.73232 3.12216,1.25445 4.8135,2.31921 17.92659,11.2854 7.96356,5.44514 14.56888,9.81164 14.67851,9.70332 0.10963,-0.10831 2.89084,-2.7768 6.18043,-5.92995 z m 2.3809,-31.23076 c 2.12795,-0.88968 4.0201,-1.45697 5.49732,-1.64822 2.03026,-0.2628 2.46701,-0.4491 4.42574,-1.88789 2.00457,-1.47247 2.17318,-1.68782 2.17318,-2.77575 l 0,-1.17946 -19.21938,-1.93119 c -19.10171,-1.91939 -19.41143,-1.94069 -50.59091,-3.47906 -18.8162,-0.92836 -40.13268,-1.79444 -53.26268,-2.16402 l -21.89112,-0.61615 -19.13318,-1.83268 c -34.06529,-3.26298 -32.23086,-3.12796 -38.45024,-2.83011 l -5.52736,0.26473 0.47785,2.64472 0.47782,2.64476 2.94615,1.75225 c 1.6204,0.96375 3.27213,1.8679 3.67055,2.00922 0.39842,0.14131 6.07653,1.36692 12.61801,2.72353 l 11.89361,2.46658 21.71875,0.96825 c 33.78614,1.5062 31.93746,1.37692 38.61112,2.70039 l 5.86062,1.16226 16.03051,0.56186 c 13.64211,0.47814 36.51072,1.59949 36.75445,1.80224 0.0415,0.0345 9.43521,0.0488 20.87494,0.0315 l 20.79946,-0.0312 3.24479,-1.35661 z m -110.5762,-42.49209 c -0.21488,-0.44356 -0.99707,-2.45295 -1.7382,-4.46534 l -1.34745,-3.65884 2.11823,-1.57305 c 1.16502,-0.86517 2.27337,-1.5276 2.46298,-1.47202 3.76952,1.10484 13.9531,4.38098 13.94568,4.48644 -0.005,0.0788 -0.6871,0.78218 -1.51456,1.56302 l -1.50442,1.4197 -4.25674,-1.66324 c -5.64198,-2.20446 -5.19143,-2.08931 -4.79653,-1.22567 0.18426,0.40292 0.44124,1.70759 0.5711,2.89925 0.18799,1.72484 0.14124,2.16666 -0.22929,2.16666 -0.25601,0 -1.10772,0.52414 -1.89277,1.16477 l -1.42734,1.16479 -0.39069,-0.80647 z m 225.92273,-35.51949 c -5.68824,-2.6087 -11.19551,-5.10127 -12.23835,-5.53908 -3.5839,-1.5046 -11.24287,-3.174 -30.33731,-6.61253 -10.52325,-1.89502 -19.64948,-3.5416 -20.28049,-3.65907 -0.63102,-0.11744 -8.23259,-0.0599 -16.89238,0.12802 l -15.74506,0.34157 -6.37773,1.15105 c -7.07773,1.27737 -31.71529,7.67715 -40.27506,10.46171 -2.71643,0.88366 -5.16365,1.60667 -5.4382,1.60667 -0.61716,0 -1.17168,-1.15179 -1.17168,-2.43364 0,-0.74067 0.31027,-1.21628 1.34349,-2.05956 1.95669,-1.59695 8.8331,-7.92487 9.20146,-8.4675 0.17295,-0.25477 6.83006,-3.10469 14.7936,-6.33315 l 14.47918,-5.86993 15.17914,-2.18064 c 8.34851,-1.19935 15.95008,-2.18127 16.89236,-2.18205 0.94229,0 10.01289,0.5273 20.15694,1.17352 l 18.44371,1.17498 13.27258,3.14752 c 12.75604,3.02501 13.43332,3.22093 17.40289,5.03428 3.20368,1.4635 6.11848,3.21121 12.99188,7.78995 4.87383,3.24676 8.87635,6.03218 8.89449,6.18984 0.0548,0.47664 -3.56129,11.89659 -3.76444,11.88856 -0.10381,-0.004 -4.84277,-2.14182 -10.53102,-4.75052 z m -13.33535,154.53323 4.53836,-10.03279 2.04514,-14.47589 c 2.02957,-14.36561 2.04367,-14.52008 1.84927,-20.28057 -0.10776,-3.19258 -0.24593,-5.80469 -0.3071,-5.80469 -0.42537,0 -11.49777,6.8137 -31.50536,19.38762 -31.43849,19.75781 -32.56411,20.47157 -32.67395,20.71901 -0.0527,0.11871 2.73974,1.75107 6.20537,3.62746 7.21255,3.90505 18.66865,10.39873 19.86242,11.25859 1.04981,0.75622 1.6014,0.54608 2.2826,-0.86955 0.92619,-1.92466 1.26989,-5.24696 1.15645,-11.17731 -0.10248,-5.35797 -0.0776,-5.61868 0.49536,-5.18695 0.33181,0.25002 0.60329,0.57431 0.60329,0.72062 0,0.58468 5.60265,10.45574 7.57102,13.33905 2.35384,3.4479 4.69715,6.17599 5.91978,6.89172 1.07188,0.62749 6.9642,2.34404 7.22018,2.10339 0.10934,-0.10276 2.2411,-4.70167 4.73717,-10.21971 z m -347.58273,-5.66676 c 4.91496,-2.80141 9.2705,-5.31677 9.67898,-5.5897 0.73802,-0.49312 0.67248,-0.55919 -10.44586,-10.52904 -13.60931,-12.20348 -15.64398,-13.94721 -16.12349,-13.81779 -1.41423,0.38168 -1.8602,4.15326 -1.10086,9.31007 0.86461,5.87161 4.11763,18.3127 6.5986,25.23605 l 0.54566,1.52269 0.95531,-0.51941 c 0.52547,-0.28568 4.97671,-2.81148 9.89166,-5.61287 z m 415.12441,-6.21651 9.7499,-7.87019 5.92695,-7.89562 c 3.2598,-4.34262 9.02962,-11.89446 12.82179,-16.78186 l 6.89487,-8.88618 3.05631,-6.59298 c 1.681,-3.62614 3.19987,-6.88915 3.37531,-7.25113 0.42734,-0.88171 2.53006,-25.32627 4.82576,-56.09994 l 0.74854,-10.03393 -1.08179,-18.34453 c -0.94084,-15.95444 -1.55686,-22.60005 -2.34967,-25.34733 -0.12917,-0.44755 -1.72039,4.62414 -4.45189,14.18923 -2.33801,8.18713 -5.49785,19.18341 -7.02189,24.43618 l -2.77096,9.55045 -12.05974,19.85764 -12.05974,19.85765 -1.44877,20.52491 -1.44882,20.52492 2.37218,6.17667 c 1.3047,3.3972 2.26753,6.2637 2.13963,6.37005 -0.1279,0.10638 -0.29375,0.13963 -0.36855,0.0739 -0.0748,-0.0657 -1.16072,-2.77619 -2.41321,-6.02335 -1.73036,-4.48615 -2.27719,-6.3038 -2.27719,-7.56925 0,-0.91597 0.62764,-10.38311 1.39472,-21.03814 l 1.39472,-19.37278 12.21912,-20.21209 12.21907,-20.21209 7.08246,-24.85601 7.08245,-24.85599 -2.08941,-11.69204 c -1.1492,-6.43059 -2.12462,-11.87865 -2.16757,-12.10677 -0.043,-0.22811 -1.6802,4.22214 -3.6383,9.88946 -2.5322,7.32913 -4.1083,11.33878 -5.45879,13.88737 -4.43652,8.37254 -6.4202,11.7527 -6.89719,11.7527 -0.27162,0 -3.92792,-0.77095 -8.12513,-1.71323 -4.19719,-0.94228 -7.6583,-1.68399 -7.69137,-1.64824 -0.0331,0.0358 -2.11351,5.35369 -4.62323,11.81768 -5.12194,13.19183 -14.33165,33.88223 -24.68951,55.467 -3.74493,7.80408 -6.78577,14.47044 -6.75739,14.81411 0.0283,0.3437 1.29057,6.14838 2.80489,12.8993 6.50508,29.00013 10.37467,47.78554 12.24166,59.42856 2.47408,15.42922 2.13133,13.93319 3.0438,13.28554 0.41034,-0.29127 5.13355,-4.07114 10.49598,-8.39971 z m -34.98695,-30.5154 c 3.74476,-2.82219 6.80996,-5.27243 6.81155,-5.445 0.004,-0.42925 -4.49299,-23.44242 -4.66888,-23.89288 -0.081,-0.20751 -4.50991,2.73749 -10.43962,6.94185 l -10.29892,7.3023 -0.22406,5.81411 c -0.12321,3.19774 -0.3274,9.93333 -0.45368,14.96796 l -0.22963,9.15386 6.34729,-4.85547 c 3.491,-2.67053 9.41118,-7.16453 13.15595,-9.98673 z m -501.24299,-59.50626 6.17509,-12.75555 1.51845,-7.59626 c 0.83514,-4.17794 1.79818,-9.29541 2.14009,-11.37214 l 0.62163,-3.77589 -0.83017,-1.16884 c -0.69264,-0.97522 -1.01066,-1.16885 -1.91978,-1.16885 -1.30321,0 -21.00895,1.42509 -21.13309,1.52831 -0.0475,0.0395 1.78217,3.00637 4.06599,6.593 l 4.1524,6.52121 -1.25972,1.27826 c -0.69286,0.70307 -1.32293,1.27829 -1.40017,1.27829 -0.0773,0 -0.38111,-0.38698 -0.67527,-0.85995 -0.29414,-0.47298 -0.698,-0.85996 -0.89744,-0.85996 -0.19944,0 -1.97865,0.7854 -3.9538,1.74534 -3.1958,1.55322 -3.54393,1.79977 -3.16212,2.23952 0.23597,0.27179 3.22145,3.30247 6.63439,6.73484 3.41296,3.43236 6.25707,6.35887 6.32028,6.50334 0.0632,0.14447 -0.6349,0.25867 -1.55134,0.2538 l -1.66625,-0.009 -8.02818,-6.32441 c -5.61887,-4.42641 -7.97935,-6.46685 -7.86546,-6.79908 0.48354,-1.41032 3.71656,-16.42838 3.56396,-16.55528 -0.2613,-0.21725 -32.42213,-0.7293 -39.53919,-0.62951 l -6.01815,0.0843 -0.41712,1.19886 -0.41711,1.19884 4.28175,6.70288 4.28176,6.70291 0.90821,4.13761 c 0.82602,3.7631 1.0244,4.26734 2.19174,5.57086 6.21785,6.94324 17.89883,14.07726 29.73968,18.16317 5.59497,1.93065 15.86471,4.42927 17.4686,4.25009 0.31066,-0.0347 2.79686,-4.80963 6.67034,-12.81088 z m -11.47485,-38.98167 c 9.39475,-0.21639 10.48964,-0.30348 24.99381,-1.98796 8.34276,-0.9689 18.1162,-2.20534 21.71876,-2.74766 4.23206,-0.63709 8.56315,-1.08245 12.23836,-1.25851 4.79474,-0.22967 9.23931,-0.79349 28.29516,-3.58942 20.12408,-2.95268 25.50051,-3.86501 48.95339,-8.30699 14.49058,-2.74447 27.95863,-5.28553 29.92903,-5.64677 2.47063,-0.45293 3.38014,-0.72186 2.93031,-0.86639 -0.35873,-0.11527 -6.46977,-0.72954 -13.58008,-1.36501 l -12.92783,-1.15543 -15.85814,0.17224 -15.85814,0.17225 -22.19434,7.29743 c -14.09062,4.63297 -22.2772,7.18594 -22.42133,6.99202 -0.12486,-0.16798 -0.66832,-2.56487 -1.2077,-5.32641 l -0.98068,-5.02098 2.1578,-4.69039 2.1578,-4.69039 2.80052,-1.46384 c 6.87078,-3.59131 17.06077,-7.11711 26.29276,-9.09739 8.26106,-1.77202 13.22538,-2.24775 23.56506,-2.25815 10.63258,-0.0107 12.27355,0.15127 27.38125,2.70289 5.49847,0.92867 10.02566,1.66212 10.06047,1.62987 0.0676,-0.0626 8.64473,-12.31651 20.14737,-28.78399 3.87755,-5.55117 7.20521,-10.09156 7.39481,-10.08975 0.18962,0.003 1.69728,1.56379 3.35039,3.47108 l 3.00563,3.46776 -1.33912,1.31892 c -0.7365,0.72542 -8.17108,7.96208 -16.52125,16.08147 l -15.18217,14.76255 17.30781,2.89457 c 9.51927,1.59203 18.5098,3.17887 19.97896,3.52632 l 2.67113,0.63172 2.32763,-1.36723 c 4.05686,-2.38303 57.31921,-35.34984 61.2785,-37.92846 2.08569,-1.35835 6.19674,-4.00318 9.13567,-5.87732 4.64029,-2.95913 8.42243,-5.93744 28.73933,-22.63143 17.10603,-14.05568 24.23647,-20.1101 26.52274,-22.52035 1.71982,-1.81307 9.88534,-10.16792 18.1456,-18.56634 l 15.0187,-15.26988 10.34226,-13.8458 10.34227,-13.8458 7.92907,-14.66033 c 4.36099,-8.06318 8.05393,-14.66482 8.20656,-14.67031 0.60764,-0.0218 4.41725,2.35495 4.27404,2.66655 -0.0843,0.18332 -1.11962,2.59069 -2.30081,5.34971 -1.18118,2.75902 -3.92068,8.98505 -6.08774,13.83561 l -3.94005,8.81922 7.60446,9.38314 c 4.18245,5.16072 10.58631,12.81724 14.23079,17.0145 3.64451,4.19723 7.40203,8.5286 8.35007,9.6252 l 1.72371,1.99387 16.71999,-6.11734 c 9.196,-3.36454 22.07212,-8.05874 28.61361,-10.43155 6.54148,-2.37281 14.48644,-5.40634 17.65546,-6.74111 l 5.76184,-2.42688 4.52977,0.0801 4.52978,0.0801 4.62875,5.87636 c 2.54582,3.23198 6.25284,7.94961 8.23783,10.48361 l 3.6091,4.60725 -0.55204,1.55574 c -0.30361,0.85566 -0.60123,1.59915 -0.66139,1.65218 -0.0601,0.053 -2.08324,-0.68865 -4.49577,-1.64825 -2.41252,-0.95956 -4.61983,-1.74468 -4.90514,-1.74468 -0.50301,0 -18.24417,3.19775 -20.83767,3.75588 l -1.28788,0.27717 1.80414,2.06825 c 20.47134,23.46824 44.15385,45.71971 59.59193,55.99103 7.18525,4.78054 14.68788,8.42021 19.42246,9.42225 2.64493,0.5598 6.18878,0.55519 8.18597,-0.0107 2.97561,-0.84304 5.90647,-3.58222 7.34433,-6.86406 0.67183,-1.53347 1.07694,-2.06398 1.3822,-1.81015 0.30886,0.25681 -1.2261,3.41267 -2.4183,4.97206 -1.45639,1.90488 -3.96952,3.71055 -5.94242,4.26949 -2.23927,0.63442 -6.28875,0.5758 -9.37685,-0.13575 -15.94057,-3.67301 -42.49003,-25.22583 -74.0418,-60.1071 -3.50113,-3.87056 -6.43768,-7.19341 -6.52569,-7.38413 -0.2204,-0.47753 -2.91379,0.0604 -22.19716,4.43315 l -16.03892,3.63703 -4.53005,2.63736 -4.53005,2.63736 13.32941,10.95126 c 19.68361,16.17183 25.60929,20.96377 30.39414,24.57908 2.3701,1.7908 11.08887,8.72001 19.37503,15.39824 12.41437,10.00536 16.99499,13.479 26.02803,19.73791 10.96195,7.59543 10.9626,7.5958 21.47692,12.94399 5.78306,2.94159 13.45305,6.87181 17.04443,8.73384 3.5914,1.86203 6.64818,3.28705 6.79288,3.16675 0.14469,-0.12031 3.31073,-6.66786 7.03567,-14.55011 l 6.77263,-14.33135 2.04495,-7.71624 c 1.40478,-5.30082 1.93358,-7.80882 1.68933,-8.01191 -0.75571,-0.62837 0.0711,-4.97598 1.37077,-7.20847 0.52228,-0.89708 1.02363,-3.28124 1.90576,-9.06263 1.12824,-7.39431 1.20995,-8.51259 1.42151,-19.45464 0.13708,-7.08969 0.0616,-16.24066 -0.19388,-23.5054 -0.36542,-10.39167 -0.63505,-13.76283 -2.13212,-26.65855 -1.46603,-12.62823 -1.94415,-15.75718 -3.30705,-21.64217 l -1.59322,-6.87963 -10.72893,-18.63233 c -5.90088,-10.24778 -13.03429,-22.22092 -15.85201,-26.60697 l -5.12311,-7.97464 -10.48561,-9.60867 c -10.06778,-9.22578 -10.92798,-9.93063 -21.58658,-17.68814 -6.10553,-4.44371 -11.64395,-8.39284 -12.30758,-8.77586 -0.66362,-0.38301 -2.69967,-1.83832 -4.52456,-3.23402 -10.56318,-8.0789 -23.51128,-14.609 -39.04854,-19.6933 -8.47586,-2.77358 -8.03291,-2.7027 -27.9609,-4.4739 l -18.27134,-1.62394 -14.99629,0.91179 c -8.24795,0.50148 -15.11245,0.93605 -15.25446,0.9657 -0.142,0.0296 2.84434,4.35293 6.63629,9.60729 3.79196,5.25437 6.89447,9.67267 6.89447,9.81844 0,0.34604 -4.60121,7.1305 -4.8264,7.11651 -0.0948,-0.006 -4.90396,-5.36346 -10.687,-11.90571 l -10.51464,-11.89506 -7.41196,-5.93522 -7.41196,-5.93523 -13.96205,-8.19599 c -13.73409,-8.06215 -14.21256,-8.31251 -29.30309,-15.3326 l -15.34103,-7.13662 -4.13691,-0.81489 c -2.71643,-0.53508 -5.49819,-1.33891 -8.10144,-2.34104 -13.08628,-5.03764 -31.33889,-9.6288 -52.4008,-13.1806 l -7.7567,-1.30806 -17.82886,-0.39485 -17.8289,-0.39486 -6.47543,0.94689 c -6.01357,0.87934 -9.20507,1.64601 -44.74185,10.74808 -35.06038,8.98004 -40.41816,10.26962 -63.94968,15.3922 l -25.68329,5.591 -9.99753,0.39521 c -5.49865,0.21737 -17.1337,0.66018 -25.85567,0.98402 -8.72198,0.32385 -19.58135,0.82953 -24.13195,1.12373 l -8.27382,0.53491 -18.61608,-1.67687 c -10.23884,-0.92227 -19.11968,-1.75204 -19.73519,-1.84393 -0.61551,-0.0919 -4.25076,-0.93318 -8.07833,-1.86952 -3.82757,-0.93634 -6.99687,-1.67115 -7.04289,-1.63288 -0.13892,0.11551 15.78545,15.2142 21.27808,20.17479 2.82036,2.54718 11.64473,9.88823 19.60971,16.31345 l 14.4818,11.6822 15.94381,8.43898 c 8.76911,4.64143 16.33166,8.60432 16.80569,8.80642 0.47402,0.20208 2.38282,0.65815 4.24178,1.01347 2.67076,0.51046 3.55681,0.57901 4.2229,0.32666 0.46363,-0.17565 12.51688,-5.91446 26.78502,-12.75291 l 25.94205,-12.43353 9.34682,-1.45807 9.34679,-1.45807 7.97922,1.80053 c 4.38858,0.9903 8.06215,1.86949 8.16347,1.95374 0.10134,0.0842 -0.0677,0.98722 -0.37563,2.00656 l -0.5599,1.85336 -6.73699,-1.1248 -6.73694,-1.12481 -6.83418,0.99811 -6.83414,0.99811 -15.61761,6.27275 c -12.77873,5.13252 -18.37601,7.58363 -30.79246,13.48435 l -15.17484,7.21161 -12.05979,7.93426 c -6.63289,4.36384 -17.9549,12.1619 -25.16,17.32902 -7.20511,5.16712 -16.97856,12.09397 -21.71876,15.393 -11.66548,8.11881 -41.9693,27.86812 -46.02309,29.99374 -1.80127,0.94451 -12.58308,6.87843 -23.95958,13.18649 l -20.68453,11.46923 -20.61957,8.86472 -20.61959,8.86475 -26.165279,5.52899 c -17.959937,3.79512 -26.575059,5.73921 -27.471961,6.1994 -4.442253,2.27928 -12.557912,8.6411 -15.685161,12.29559 -3.887099,4.54242 -5.586331,8.91675 -4.850778,12.4873 1.629574,7.91034 12.193085,13.96739 32.419009,18.58893 2.797204,0.63915 10.856014,1.88359 22.19267,3.42697 l 17.80055,2.42341 7.71036,4.41726 c 7.15672,4.10009 8.45302,4.71797 18.05264,8.60487 8.99141,3.64061 12.72877,4.94267 28.6136,9.96858 10.04923,3.17956 21.37402,6.73966 25.16618,7.91132 l 6.89485,2.1303 23.61484,3.97978 c 12.98816,2.18887 28.34643,4.90125 34.12948,6.02753 l 10.51464,2.04778 19.10972,1.1227 c 10.51035,0.61747 19.22212,1.22176 19.35948,1.34284 0.13736,0.12111 0.55359,1.47787 0.92496,3.01503 l 0.6752,2.79485 -0.72913,-0.01 c -0.40101,-0.005 -8.64094,-0.89298 -18.31096,-1.97305 -9.67003,-1.08007 -17.62104,-1.9355 -17.66893,-1.90095 -0.0479,0.0345 0.22359,0.8136 0.60329,1.73128 0.37972,0.91766 0.69038,1.83893 0.69038,2.04727 0,0.96257 -9.91034,11.70463 -21.38544,23.18019 -12.4056,12.40609 -15.06643,15.22023 -14.68833,15.53463 0.10485,0.0872 2.3234,0.47361 4.93012,0.85872 4.34793,0.64239 4.89745,0.79457 6.65127,1.84219 l 1.91176,1.14196 9.99753,-0.18655 c 5.49864,-0.10265 14.41885,-0.28836 19.82268,-0.41283 z M 455.41846,655.35022 c -2.55971,-0.68105 -10.62668,-2.79799 -17.92659,-4.70431 -7.29992,-1.90631 -15.37806,-4.11012 -17.95141,-4.89729 -4.01839,-1.22922 -8.47087,-2.11612 -31.54391,-6.28339 -14.77579,-2.6687 -31.44153,-5.68393 -37.03497,-6.70051 -9.16695,-1.66608 -10.90086,-1.89385 -17.58186,-2.30975 -7.11798,-0.4431 -36.30165,-2.5194 -36.43494,-2.59221 -0.0355,-0.0195 0.3283,-2.13794 0.80855,-4.70784 0.48025,-2.56992 0.79846,-4.73471 0.70713,-4.81064 -0.0913,-0.0759 -26.67282,3.66578 -59.06999,8.31489 -74.23323,10.65278 -63.43474,9.72426 -114.75216,9.86704 -40.459341,0.11261 -64.080794,-0.10895 -63.717609,-0.59758 0.154625,-0.20802 14.882419,-0.23926 48.061189,-0.10202 l 47.83826,0.19796 11.66083,-0.73417 11.66082,-0.73414 59.29566,-8.49643 c 32.61261,-4.67302 59.3184,-8.5062 59.34619,-8.51815 0.0278,-0.012 0.85829,-4.40753 1.84555,-9.7679 0.98728,-5.36037 1.84549,-9.79069 1.90717,-9.84515 0.22727,-0.20065 28.44981,5.49089 34.11841,6.88055 l 5.86061,1.43672 11.89361,-5.52922 c 11.71878,-5.44792 85.56609,-38.12014 85.77665,-37.95011 0.0595,0.048 -1.64694,4.02496 -3.79216,8.83755 l -3.90038,8.75016 -8.9633,9.51711 c -4.92981,5.23442 -9.10175,9.716 -9.27095,9.95911 -0.27655,0.39733 2.56571,0.42313 28.13827,0.25535 l 28.44589,-0.18663 26.50341,-6.85905 c 14.57683,-3.77247 36.04411,-9.33333 47.70499,-12.35748 11.66091,-3.02414 23.52356,-6.08025 26.36144,-6.79135 4.45087,-1.11527 6.70076,-1.93347 16.37526,-5.9551 16.5733,-6.8894 51.55998,-21.07135 71.13952,-28.83659 l 17.17601,-6.81202 4.60332,2.47902 4.60327,2.47902 9.07513,13.1428 9.07509,13.1428 16.97856,15.79357 c 9.3382,8.68646 16.97855,15.89993 16.97855,16.02991 0,0.13 -0.12893,0.23635 -0.28651,0.23635 -0.15758,0 -7.88608,-7.06236 -17.1744,-15.69415 l -16.88792,-15.69415 -8.9058,-12.89931 c -4.89816,-7.09462 -9.13011,-13.11683 -9.40429,-13.38269 -0.27417,-0.26588 -2.35258,-1.47409 -4.61864,-2.68491 l -4.12012,-2.20152 -11.79064,4.66779 c -21.82773,8.64137 -30.63903,12.1895 -58.84794,23.6968 l -28.09649,11.46144 -10.34226,2.74864 c -5.68825,1.51176 -18.64194,4.89683 -28.78596,7.52239 -10.14405,2.62556 -29.35477,7.5976 -42.69046,11.04896 l -24.24676,6.27521 -29.53303,0.1898 c -28.97672,0.18623 -29.52259,0.17955 -28.97803,-0.35402 0.30527,-0.29912 4.74096,-4.99953 9.85711,-10.44538 l 9.30208,-9.90156 3.50519,-7.844 c 1.92788,-4.3142 3.44963,-7.8902 3.38175,-7.94665 -0.20784,-0.1728 -72.06463,31.59311 -83.97261,37.12198 -6.28013,2.91585 -10.96179,5.25569 -10.687,5.34122 0.26895,0.0837 7.23733,1.81915 15.48529,3.85644 l 14.99629,3.70419 23.44247,8.3468 c 23.33094,8.30709 23.47936,8.36523 31.19917,12.2151 4.26618,2.12755 13.28936,7.08656 20.05148,11.01998 l 12.29478,7.15169 -0.63936,1.75583 c -0.35163,0.9657 -0.68731,1.79306 -0.74591,1.8386 -0.0586,0.0456 -2.20088,-0.47437 -4.76059,-1.15543 z M 222.16212,763.73443 c 13.88726,-10.24546 20.3709,-15.18519 20.33661,-15.49399 -0.0302,-0.27192 -20.81328,-20.96166 -30.72903,-30.59096 -0.27472,-0.26679 -0.43855,-0.63705 -0.36408,-0.8228 0.0745,-0.18578 8.17112,5.5792 17.99255,12.81104 9.82144,7.23184 17.98754,13.14881 18.1469,13.14881 0.22856,0 13.67809,-13.06502 14.27181,-13.8638 0.20835,-0.28033 -6.40931,-9.2408 -7.04237,-9.53554 -0.28222,-0.13141 -13.30929,-2.31881 -28.94904,-4.86086 -30.76493,-5.00052 -27.38529,-4.31493 -54.43893,-11.04344 -5.38423,-1.33912 -9.90192,-2.3311 -10.03932,-2.20443 -0.1374,0.12667 -0.34121,1.00646 -0.45291,1.95513 l -0.20309,1.72484 4.60808,2.92499 c 4.3313,2.7493 4.74736,3.10196 6.92685,5.87141 4.79898,6.09802 22.49743,26.39201 31.31838,35.91133 7.59604,8.19744 15.27655,15.62248 16.15997,15.62248 0.19302,0 1.29894,-0.69939 2.45762,-1.55421 z m 662.38667,-2.79773 3.00402,-0.62547 13.96205,-8.35728 13.96206,-8.35727 3.6534,-6.54834 3.65338,-6.54838 0.44769,-5.85204 c 0.24621,-3.21863 0.54134,-6.2074 0.65586,-6.6417 0.13715,-0.51999 4.39622,-4.45018 12.4733,-11.51005 6.74577,-5.89625 20.5527,-18.33556 30.68205,-27.64289 10.12935,-9.30737 20.20103,-18.30079 22.38153,-19.98539 4.93278,-3.81093 11.12677,-9.42305 14.23427,-12.89701 2.731,-3.05309 5.3046,-7.24026 5.5945,-9.10197 0.3009,-1.932 -0.8555,-3.62897 -3.1088,-4.56229 -1.508,-0.62461 -2.2862,-0.72854 -6.21861,-0.83046 -7.89273,-0.20454 -9.92054,0.17552 -30.3854,5.69516 -14.14265,3.81447 -21.40167,5.96346 -33.95711,10.05286 -8.78303,2.86069 -17.10983,5.44826 -18.50401,5.75016 -1.39416,0.3019 -8.68547,2.81481 -16.20288,5.58423 -12.86574,4.73978 -13.74898,5.11266 -15.047,6.35247 -0.75843,0.72444 -3.79661,3.61996 -6.75153,6.43453 l -5.37253,5.11735 -0.90985,6.21661 c -0.88099,6.01953 -0.8937,6.32558 -0.40145,9.65638 0.27962,1.8919 0.5902,4.60076 0.69014,6.01968 0.1,1.41892 0.79791,8.03248 1.55093,14.69678 0.75302,6.66429 1.36914,12.28068 1.36914,12.48087 0,0.58039 7.08142,1.45571 9.81057,1.21268 l 2.2349,-0.19898 3.97301,-3.83262 3.97305,-3.83262 0.72903,-6.53297 0.72902,-6.53302 -2.36478,-1.80271 c -3.63459,-2.7707 -3.10014,-2.88432 -6.38522,1.3574 -1.58092,2.04133 -3.02956,3.70978 -3.21917,3.70769 -0.18961,-0.003 -1.0656,-0.94919 -1.94666,-2.10464 l -1.60195,-2.10082 3.1533,-4.71702 3.15325,-4.71704 7.92907,-6.28801 c 28.02516,-22.22496 26.80819,-21.32794 36.39919,-26.8295 24.27302,-13.92336 35.6249,-20.2842 35.84261,-20.08383 0.27162,0.25001 1.49904,5.80296 1.31026,5.92774 -0.067,0.0443 -1.78877,0.58446 -3.82596,1.20024 l -3.70397,1.11963 -0.003,1.0023 c -0.006,3.24476 -5.88175,13.165 -15.44331,26.07566 -4.23257,5.71511 -8.27809,10.90332 -8.50186,10.90332 -0.0962,0 -0.62387,-0.65379 -1.17275,-1.45286 l -0.99792,-1.45286 3.72804,-5.25685 c 7.58616,-10.69712 13.05426,-19.47322 13.63342,-21.88108 0.19199,-0.79812 0.1057,-0.93775 -0.74585,-1.20695 -0.52963,-0.16743 -1.14347,-0.24683 -1.36418,-0.1764 -0.22067,0.0704 -6.8262,3.78423 -14.67895,8.25291 -13.78131,7.84241 -14.5354,8.31983 -21.68901,13.73148 -10.97055,8.29916 -11.581,8.87315 -14.27836,13.42594 l -2.27508,3.83999 0.82127,1.17641 c 3.11133,4.45682 2.84137,3.58644 3.78403,12.19999 l 0.86134,7.87041 -6.54848,5.66147 c -3.60166,3.11379 -6.80818,5.72833 -7.12555,5.81009 -0.31737,0.0818 -3.19294,0.66075 -6.39011,1.28669 -3.19721,0.62593 -5.88805,1.20035 -5.97965,1.27651 -0.0916,0.0761 0.0868,3.0823 0.39634,6.68029 0.30958,3.59796 0.77692,9.63761 1.03855,13.42142 0.26161,3.78379 0.62887,7.2021 0.81614,7.59625 0.18726,0.39414 0.50653,1.07136 0.70948,1.50492 0.20295,0.43356 0.45599,0.78829 0.56234,0.78829 0.10638,0 1.54521,-0.28147 3.19741,-0.62548 z m 12.82916,-104.5578 c 9.196,-3.96429 16.8971,-7.36373 17.1136,-7.55423 0.21646,-0.19051 0.96358,-1.44283 1.66031,-2.78293 l 1.26678,-2.43653 0.45786,-10.59179 c 0.40738,-9.42406 0.3879,-12.71075 -0.17675,-29.81173 l -0.63463,-19.21993 -2.59981,-13.39809 c -1.88602,-9.71974 -3.54284,-16.99932 -6.03485,-26.51524 l -3.43511,-13.11714 -5.81739,-13.78956 -5.81739,-13.78958 -9.454,-15.2956 c -9.39771,-15.20456 -9.49202,-15.34174 -15.84797,-23.04511 -10.75092,-13.03003 -17.50387,-20.98511 -19.41158,-22.86713 -2.04066,-2.01321 -7.64976,-7.96014 -16.15747,-17.13064 -4.14401,-4.46684 -8.00265,-8.1696 -14.0205,-13.45402 l -8.3029,-7.29101 -28.51322,-16.46598 -28.51318,-16.46599 -6.91304,-2.57813 c -5.01135,-1.86893 -12.17637,-4.0939 -26.04624,-8.08826 -10.52326,-3.03056 -20.21914,-5.96508 -21.54639,-6.52114 -1.32726,-0.55606 -3.81058,-1.28211 -5.5185,-1.61345 -1.70792,-0.33134 -18.81954,-3.83078 -38.02582,-7.77653 l -34.92053,-7.1741 -8.68674,-7.5e-4 c -4.77772,-4e-4 -11.81321,-0.085 -15.63444,-0.18793 l -6.94769,-0.18717 -0.71382,-1.05603 -0.7138,-1.05604 -8.36903,-0.19279 c -28.76574,-0.66266 -31.87779,-0.63068 -50.08278,0.51477 l -16.89237,1.06283 -20.18263,4.41239 -20.18262,4.41238 -18.60987,5.55811 c -10.23543,3.05696 -19.14878,5.78878 -19.80747,6.07073 -0.65867,0.28194 -10.96164,4.95812 -22.89544,10.39152 l -21.69783,9.87891 -13.2935,8.41533 c -7.31143,4.62843 -22.29127,14.32511 -33.28854,21.54817 -18.3719,12.06673 -20.00386,13.20788 -20.10328,14.05723 -0.0675,0.57641 0.0653,0.97973 0.35259,1.07141 0.84729,0.27035 25.41003,-3.26421 43.71026,-6.28988 l 18.09897,-2.99238 13.61732,-4.61275 13.61732,-4.61274 20.16741,-4.60087 c 11.09208,-2.53049 23.56186,-5.37474 27.71058,-6.32056 l 7.5432,-1.7197 16.41639,-0.80863 16.41642,-0.80864 14.99629,1.55081 14.99628,1.5508 11.5865,3.13714 c 10.55373,2.85751 12.64328,3.53674 23.44247,7.62021 6.52076,2.46571 20.02172,7.55177 30.00212,11.30239 l 18.14613,6.81928 17.36232,9.82639 c 9.54925,5.4045 21.20337,12.07136 25.89799,14.81521 l 8.53571,4.98884 8.52903,-1.17113 c 4.69098,-0.64411 9.26715,-1.17001 10.16935,-1.16866 2.02219,0.003 35.44691,2.41339 42.31431,3.0514 3.65417,0.3395 6.99247,0.90466 12.41072,2.10112 6.69775,1.479 8.20921,1.93646 15.68577,4.74753 l 8.27382,3.11081 13.78968,7.65197 c 7.58433,4.20859 17.12507,9.6071 21.20165,11.99669 l 7.41195,4.34473 13.19825,10.95252 13.19825,10.95252 12.93125,17.39975 12.93121,17.39975 6.03105,13.55858 6.0311,13.55858 3.41136,14.18924 3.4114,14.18923 1.27079,13.4726 1.27075,13.47261 -0.21908,16.76909 c -0.12049,9.223 -0.31623,18.23168 -0.43497,20.0193 l -0.21587,3.25019 1.68627,-0.71235 c 0.92746,-0.39177 9.21027,-3.95588 18.40626,-7.92021 z M 252.19292,525.29656 c 7.75052,-4.70915 40.0255,-27.10976 39.58434,-27.47371 -0.15605,-0.12873 -6.08128,-3.84863 -13.16718,-8.26643 l -12.88345,-8.03237 -4.55526,5.50799 c -4.12908,4.9927 -5.63622,7.22728 -16.10999,23.88566 l -11.55476,18.37768 0.16651,3.59416 0.16652,3.59418 5.72922,-3.49896 c 3.15107,-1.92443 8.83189,-5.38411 12.62405,-7.6882 z"
       id="path3347"
       inkscape:connector-curvature="0" />
  </g>
</svg>
